<?xml version="1.0" encoding="UTF-8" standalone="no"?>
<!-- Created with Inkscape (http://www.inkscape.org/) -->

<svg
   xmlns:dc="http://purl.org/dc/elements/1.1/"
   xmlns:cc="http://creativecommons.org/ns#"
   xmlns:rdf="http://www.w3.org/1999/02/22-rdf-syntax-ns#"
   xmlns:svg="http://www.w3.org/2000/svg"
   xmlns="http://www.w3.org/2000/svg"
   xmlns:xlink="http://www.w3.org/1999/xlink"
   xmlns:sodipodi="http://sodipodi.sourceforge.net/DTD/sodipodi-0.dtd"
   xmlns:inkscape="http://www.inkscape.org/namespaces/inkscape"
   width="73.954468mm"
   height="53.749165mm"
   viewBox="0 0 73.954468 53.749165"
   version="1.1"
   id="svg8"
   inkscape:version="0.92.5 (2060ec1f9f, 2020-04-08)"
   sodipodi:docname="desenhando.svg">
  <defs
     id="defs2">
    <style
       id="style516">.cls-1,.cls-19{fill:#172f78;}.cls-1,.cls-11{opacity:0.4;}.cls-2{fill:#03a7d3;}.cls-3{fill:url(#Áåçûìÿííûé_ãðàäèåíò_515);}.cls-4{fill:url(#Áåçûìÿííûé_ãðàäèåíò_19);}.cls-5{fill:url(#Áåçûìÿííûé_ãðàäèåíò_515-2);}.cls-18,.cls-6{fill:#fff;}.cls-18,.cls-7,.cls-9{opacity:0.5;}.cls-8,.cls-9{fill:#380031;}.cls-10,.cls-11{fill:#06033e;}.cls-10{opacity:0.2;}.cls-12{fill:url(#Áåçûìÿííûé_ãðàäèåíò_515-3);}.cls-13{fill:url(#Áåçûìÿííûé_ãðàäèåíò_47);}.cls-14{fill:url(#Áåçûìÿííûé_ãðàäèåíò_89);}.cls-15{fill:url(#Áåçûìÿííûé_ãðàäèåíò_515-4);}.cls-16{fill:#8b1e64;}.cls-17{fill:#fb8488;}</style>
    <linearGradient
       id="Áåçûìÿííûé_ãðàäèåíò_515"
       x1="-403.82001"
       y1="81.160004"
       x2="-253.56"
       y2="81.160004"
       gradientTransform="translate(522.91)"
       gradientUnits="userSpaceOnUse">
      <stop
         offset="0"
         stop-color="#b6246e"
         id="stop518" />
      <stop
         offset="1"
         stop-color="#f9636b"
         id="stop520" />
    </linearGradient>
    <linearGradient
       id="Áåçûìÿííûé_ãðàäèåíò_19"
       x1="-374.34"
       y1="155.21001"
       x2="-289.95999"
       y2="155.21001"
       gradientTransform="translate(522.91)"
       gradientUnits="userSpaceOnUse">
      <stop
         offset="0"
         stop-color="#f9636b"
         id="stop523" />
      <stop
         offset="0.32"
         stop-color="#b7256e"
         id="stop525" />
      <stop
         offset="1"
         stop-color="#b6246e"
         id="stop527" />
    </linearGradient>
    <linearGradient
       id="Áåçûìÿííûé_ãðàäèåíò_515-2"
       x1="-278.82999"
       y1="145.96001"
       x2="-439.60999"
       y2="154.55"
       xlink:href="#Áåçûìÿííûé_ãðàäèåíò_515" />
    <linearGradient
       id="Áåçûìÿííûé_ãðàäèåíò_515-3"
       x1="65.519997"
       y1="58.75"
       x2="31.639999"
       y2="49.650002"
       xlink:href="#Áåçûìÿííûé_ãðàäèåíò_515" />
    <radialGradient
       id="Áåçûìÿííûé_ãðàäèåíò_47"
       cx="65.220001"
       cy="60.400002"
       r="25.24"
       gradientUnits="userSpaceOnUse">
      <stop
         offset="0"
         stop-color="#f9636b"
         id="stop532" />
      <stop
         offset="1"
         stop-color="#b6246e"
         id="stop534" />
    </radialGradient>
    <linearGradient
       id="Áåçûìÿííûé_ãðàäèåíò_89"
       x1="40.470001"
       y1="50.110001"
       x2="76.410004"
       y2="50.110001"
       gradientUnits="userSpaceOnUse">
      <stop
         offset="0"
         stop-color="#a31c5a"
         id="stop537" />
      <stop
         offset="1"
         stop-color="#f9636b"
         id="stop539" />
    </linearGradient>
    <linearGradient
       id="Áåçûìÿííûé_ãðàäèåíò_515-4"
       x1="69.900002"
       y1="56.32"
       x2="35.77"
       y2="51.049999"
       xlink:href="#Áåçûìÿííûé_ãðàäèåíò_515" />
  </defs>
  <sodipodi:namedview
     id="base"
     pagecolor="#ffffff"
     bordercolor="#666666"
     borderopacity="1.0"
     inkscape:pageopacity="0.0"
     inkscape:pageshadow="2"
     inkscape:zoom="0.49497475"
     inkscape:cx="127.99435"
     inkscape:cy="173.43495"
     inkscape:document-units="mm"
     inkscape:current-layer="layer1"
     showgrid="false"
     inkscape:snap-global="false"
     inkscape:window-width="1366"
     inkscape:window-height="768"
     inkscape:window-x="0"
     inkscape:window-y="0"
     inkscape:window-maximized="1" />
  <metadata
     id="metadata5">
    <rdf:RDF>
      <cc:Work
         rdf:about="">
        <dc:format>image/svg+xml</dc:format>
        <dc:type
           rdf:resource="http://purl.org/dc/dcmitype/StillImage" />
        <dc:title></dc:title>
      </cc:Work>
    </rdf:RDF>
  </metadata>
  <g
     inkscape:label="Camada 1"
     inkscape:groupmode="layer"
     id="layer1"
     transform="translate(-58.738996,-178.96069)">
    <g
       id="g892"
       transform="matrix(0.03527778,0,0,-0.03527778,39.414951,389.55776)">
      <path
         d="m 685.41014,4465.8553 c 0,0 -151.6185,356.907 40.13361,626.63 191.75072,269.7184 74.80367,508.8266 411.48465,746.8682 432.7486,305.9627 850.1526,4.0807 974.6245,-200.5916 124.4672,-204.6723 547.2411,-100.1914 424.3737,-682.5733 -95.3131,-451.7657 -24.1969,-471.5805 -24.1969,-471.5805 L 685.41014,4465.8553"
         style="fill:#f0e8f6;fill-opacity:1;fill-rule:nonzero;stroke:none;stroke-width:0.46372044"
         id="path894"
         inkscape:connector-curvature="0" />
      <path
         d="m 776.76492,4562.4065 c 0,0 -269.06869,140.5768 -204.23269,456.6673 64.83183,316.0904 328.87518,391.0925 437.45997,367.8926 203.5269,-43.4924 -128.99174,-171.8177 -208.42195,48.4402 -99.66187,276.3588 255.68895,485.5941 585.09285,431.4455 211.7023,-34.8022 313.8923,-136.1437 502.0794,-199.8264 187.5146,-63.4509 266.1616,21.5305 191.4516,70.7823 -70.9168,46.7569 -328.4068,-29.5205 -239.9985,-134.0709 121.0542,-143.1551 412.7946,78.6424 638.9001,-168.3305 226.1054,-246.9729 29.8172,-557.4662 -144.0084,-583.3603 -173.8256,-25.8895 -97.6039,223.6245 173.8256,25.8941 271.4341,-197.735 -71.4222,-412.0851 -71.4222,-412.0851"
         style="fill:none;stroke:#babbe4;stroke-width:4.63720465;stroke-linecap:butt;stroke-linejoin:miter;stroke-miterlimit:10;stroke-dasharray:none;stroke-opacity:1"
         id="path896"
         inkscape:connector-curvature="0" />
      <path
         d="M 2624.3468,4446.0822 H 567.53796 c -10.91737,0 -19.76979,8.8524 -19.76979,19.7731 v 0 c 0,10.9159 8.85242,19.7684 19.76979,19.7684 H 2644.1152 v -19.7684 c 0,-10.9207 -8.8524,-19.7731 -19.7684,-19.7731"
         style="fill:#596abc;fill-opacity:1;fill-rule:nonzero;stroke:none;stroke-width:0.46372044"
         id="path898"
         inkscape:connector-curvature="0" />
      <path
         d="M 1306.6806,4446.0822 H 567.53796 c -10.91737,0 -19.76979,8.8524 -19.76979,19.7731 v 19.7684 H 1326.449 v -19.7684 c 0,-10.9207 -8.8478,-19.7731 -19.7684,-19.7731"
         style="fill:#232858;fill-opacity:1;fill-rule:nonzero;stroke:none;stroke-width:0.46372044"
         id="path900"
         inkscape:connector-curvature="0" />
      <path
         d="m 1613.951,5239.2807 c -88.0791,-169.2626 -187.0463,-238.2132 -187.0463,-238.2132 l 85.4683,-136.4544 149.2485,155.0913 -47.6705,219.5763"
         style="fill:#232858;fill-opacity:1;fill-rule:nonzero;stroke:none;stroke-width:0.46372044"
         id="path902"
         inkscape:connector-curvature="0" />
      <path
         d="m 1832.3448,5279.68 -218.3938,-40.3993 c -13.8328,-413.1935 -19.0172,-753.606 -19.0172,-753.606 h 392.0015 c 0,0 11.3797,632.7141 -51.6817,770.7636 l -102.9088,23.2417"
         style="fill:#232858;fill-opacity:1;fill-rule:nonzero;stroke:none;stroke-width:0.46372044"
         id="path904"
         inkscape:connector-curvature="0" />
      <path
         d="m 1806.9839,5069.1185 106.396,9.0008"
         style="fill:none;stroke:#596abc;stroke-width:18.54881859;stroke-linecap:butt;stroke-linejoin:miter;stroke-miterlimit:10;stroke-dasharray:none;stroke-opacity:1"
         id="path906"
         inkscape:connector-curvature="0" />
      <path
         d="m 1758.1449,5157.9209 c 0,0 67.5316,-460.8314 8.7736,-647.2934"
         style="fill:none;stroke:#596abc;stroke-width:4.63720465;stroke-linecap:butt;stroke-linejoin:miter;stroke-miterlimit:10;stroke-dasharray:none;stroke-opacity:1"
         id="path908"
         inkscape:connector-curvature="0" />
      <path
         d="m 1687.4368,4927.0902 c 0,0 65.2269,-26.2559 149.791,-29.0336 84.5594,-2.7777 31.9457,-47.7725 -93.4165,-39.24"
         style="fill:none;stroke:#596abc;stroke-width:4.63720465;stroke-linecap:butt;stroke-linejoin:miter;stroke-miterlimit:10;stroke-dasharray:none;stroke-opacity:1"
         id="path910"
         inkscape:connector-curvature="0" />
      <path
         d="m 1704.2466,5296.4806 53.8983,-143.1969 74.1999,126.3963 -48.904,79.913 -79.1942,-63.1124"
         style="fill:#f68b87;fill-opacity:1;fill-rule:nonzero;stroke:none;stroke-width:0.46372044"
         id="path912"
         inkscape:connector-curvature="0" />
      <path
         d="m 1758.1449,5153.2837 100.6134,27.7769 -26.4135,98.6194 z"
         style="fill:#596abc;fill-opacity:1;fill-rule:nonzero;stroke:none;stroke-width:0.46372044"
         id="path914"
         inkscape:connector-curvature="0" />
      <path
         d="m 1716.2245,5264.6647 -54.603,-60.9931 96.5234,-50.3879 z"
         style="fill:#596abc;fill-opacity:1;fill-rule:nonzero;stroke:none;stroke-width:0.46372044"
         id="path916"
         inkscape:connector-curvature="0" />
      <path
         d="m 1512.373,4864.6131 c 0,0 31.8901,66.4975 -36.5875,152.156 -37.9694,47.4988 -55.461,129.4614 -55.461,129.4614 l -57.0515,-8.6762 52.2381,-272.9412 h 96.8619"
         style="fill:#f68b87;fill-opacity:1;fill-rule:nonzero;stroke:none;stroke-width:0.46372044"
         id="path918"
         inkscape:connector-curvature="0" />
      <path
         d="m 1351.6151,5231.8148 -23.3576,-21.2338 31.2223,-27.5635 -97.7755,1.6647 -2.096,-33.5501 103.6647,-13.5778 57.0515,8.6762 -68.7094,85.5843"
         style="fill:#f68b87;fill-opacity:1;fill-rule:nonzero;stroke:none;stroke-width:0.46372044"
         id="path920"
         inkscape:connector-curvature="0" />
      <path
         d="m 1368.7078,5179.5628 -93.8199,38.6928 -6.0562,-16.6661 78.3038,-32.9056 21.5723,10.8789"
         style="fill:#f68b87;fill-opacity:1;fill-rule:nonzero;stroke:none;stroke-width:0.46372044"
         id="path922"
         inkscape:connector-curvature="0" />
      <path
         d="m 1935.2536,5256.4383 c 0,0 126.0207,-71.7561 165.8218,-340.5331 l -146.211,-35.2798 -19.6108,375.8129"
         style="fill:#232858;fill-opacity:1;fill-rule:nonzero;stroke:none;stroke-width:0.46372044"
         id="path924"
         inkscape:connector-curvature="0" />
      <path
         d="m 1661.5473,5471.4701 -47.5963,-121.7915 36.3974,-11.1988 11.1989,-68.5982 116.199,26.599 16.796,186.1884 -132.995,-11.1989"
         style="fill:#f68b87;fill-opacity:1;fill-rule:nonzero;stroke:none;stroke-width:0.46372044"
         id="path926"
         inkscape:connector-curvature="0" />
      <path
         d="m 1739.0952,5442.5294 h -88.8534 l 9.6871,26.2558 79.1663,4.8969 v -31.1527"
         style="fill:#f35f7e;fill-opacity:1;fill-rule:nonzero;stroke:none;stroke-width:0.46372044"
         id="path928"
         inkscape:connector-curvature="0" />
      <path
         d="m 1785.5276,5386.9664 c 0,0 -56.6945,11.7275 -56.6945,70.3742 0,0 -84.1142,-11.4493 -113.1524,34.2086 -34.3988,54.0838 18.1639,116.2362 61.5774,103.6091 0,0 -27.3549,-27.1137 14.1899,-30.2995 29.6224,-2.2769 83.7664,37.1394 103.0943,-0.9784 0,0 149.1232,-34.0603 37.8025,-173.0049 l -46.8172,-3.9091"
         style="fill:#202551;fill-opacity:1;fill-rule:nonzero;stroke:none;stroke-width:0.46372044"
         id="path930"
         inkscape:connector-curvature="0" />
      <path
         d="m 1728.8331,5461.9778 c 0,0 -112.4337,-21.7253 -135.9536,58.9018 -13.7446,47.1418 33.4992,73.9866 33.4992,73.9866"
         style="fill:none;stroke:#202551;stroke-width:9.27440929;stroke-linecap:butt;stroke-linejoin:miter;stroke-miterlimit:10;stroke-dasharray:none;stroke-opacity:1"
         id="path932"
         inkscape:connector-curvature="0" />
      <path
         d="m 1723.5421,5392.3363 c -2.0265,-23.353 -22.6018,-40.6451 -45.9547,-38.6187 -23.3576,2.0265 -40.6451,22.6017 -38.6187,45.9593 2.0265,23.353 22.6018,40.6405 45.9594,38.614 23.3529,-2.0264 40.6404,-22.6017 38.614,-45.9546 z"
         style="fill:none;stroke:#202551;stroke-width:2.31860232;stroke-linecap:butt;stroke-linejoin:miter;stroke-miterlimit:10;stroke-dasharray:none;stroke-opacity:1"
         id="path934"
         inkscape:connector-curvature="0" />
      <path
         d="m 1721.4182,5409.7397 60.4506,-3.311"
         style="fill:none;stroke:#202551;stroke-width:2.31860232;stroke-linecap:butt;stroke-linejoin:miter;stroke-miterlimit:10;stroke-dasharray:none;stroke-opacity:1"
         id="path936"
         inkscape:connector-curvature="0" />
      <path
         d="m 1858.7583,5376.2776 c 0,-26.2883 -35.2242,-47.6009 -61.5079,-47.6009 -26.2883,0 -33.6893,21.3126 -33.6893,47.6009 0,26.2837 21.3126,47.5963 47.6009,47.5963 26.2837,0 47.5963,-21.3126 47.5963,-47.5963"
         style="fill:#f68b87;fill-opacity:1;fill-rule:nonzero;stroke:none;stroke-width:0.46372044"
         id="path938"
         inkscape:connector-curvature="0" />
      <path
         d="M 2083.6303,4911.69 V 4692.2065 H 1974.183 l -9.1075,190.8812 118.5548,28.6023"
         style="fill:#f68b87;fill-opacity:1;fill-rule:nonzero;stroke:none;stroke-width:0.46372044"
         id="path940"
         inkscape:connector-curvature="0" />
      <path
         d="m 1605.4278,4961.3174 4.5955,152.9303 -70.8936,-221.8345 z"
         style="fill:#232756;fill-opacity:1;fill-rule:nonzero;stroke:none;stroke-width:0.46372044"
         id="path942"
         inkscape:connector-curvature="0" />
      <path
         d="m 1709.8809,5281.9151 67.8654,14.5655 -55.6371,-47.4525 z"
         style="fill:#f35f7e;fill-opacity:1;fill-rule:nonzero;stroke:none;stroke-width:0.46372044"
         id="path944"
         inkscape:connector-curvature="0" />
      <path
         d="m 1677.8749,5393.222 c 0,-9.3579 -3.6402,-16.9444 -8.1291,-16.9444 -4.4888,0 -8.1243,7.5865 -8.1243,16.9444 0,9.3578 3.6355,16.9443 8.1243,16.9443 4.4889,0 8.1291,-7.5865 8.1291,-16.9443"
         style="fill:#202551;fill-opacity:1;fill-rule:nonzero;stroke:none;stroke-width:0.46372044"
         id="path946"
         inkscape:connector-curvature="0" />
      <path
         d="m 1691.805,5434.4282 c 0,22.7037 -18.0758,7.4241 -18.0758,7.4241 l 18.0758,-7.4241"
         style="fill:#202551;fill-opacity:1;fill-rule:nonzero;stroke:none;stroke-width:0.46372044"
         id="path948"
         inkscape:connector-curvature="0" />
      <path
         d="m 1673.7292,5333.9168 25.8571,6.8816 c 0,0 11.069,-95.8882 -25.8571,-6.8816"
         style="fill:#ffffff;fill-opacity:1;fill-rule:nonzero;stroke:none;stroke-width:0.46372044"
         id="path950"
         inkscape:connector-curvature="0" />
      <path
         d="m 1116.6247,4904.1267 c 0,0 174.4192,26.9839 177.8415,-277.1703 0.5564,-49.3584 31.9828,-141.3327 31.9828,-141.3327 h -158.0638 l -51.7605,418.503"
         style="fill:#4545a4;fill-opacity:1;fill-rule:nonzero;stroke:none;stroke-width:0.46372044"
         id="path952"
         inkscape:connector-curvature="0" />
      <path
         d="m 934.24809,4931.1106 -105.41803,-24.8832 32.16133,-420.6037 h 410.17281 c 0,0 -13.7586,332.775 -168.4372,432.614 l -168.47891,12.8729"
         style="fill:#5248a7;fill-opacity:1;fill-rule:nonzero;stroke:none;stroke-width:0.46372044"
         id="path954"
         inkscape:connector-curvature="0" />
      <path
         d="m 828.83006,4906.2274 c -108.65712,-24.7812 -83.22345,-108.1767 -62.2401,-279.4287 -54.23349,-44.0442 -2.20452,-63.8728 -2.20452,-63.8728 -59.56072,-63.1309 14.74121,-77.3022 14.74121,-77.3022 h 198.34946 c 0,0 -39.91242,445.4035 -148.64605,420.6037"
         style="fill:#5248a7;fill-opacity:1;fill-rule:nonzero;stroke:none;stroke-width:0.46372044"
         id="path956"
         inkscape:connector-curvature="0" />
      <path
         d="m 965.6837,4582.7731 -47.6009,218.5004"
         style="fill:none;stroke:#4545a4;stroke-width:4.63720465;stroke-linecap:butt;stroke-linejoin:miter;stroke-miterlimit:10;stroke-dasharray:none;stroke-opacity:1"
         id="path958"
         inkscape:connector-curvature="0" />
      <path
         d="m 779.12665,4485.6237 c 0,0 33.48571,76.8895 139.33176,115.5406 87.75909,32.0523 216.13079,-51.1438 298.30669,27.9066 l 15.2193,-89.0018 -254.50829,-54.4454 H 779.12665"
         style="fill:#f68b87;fill-opacity:1;fill-rule:nonzero;stroke:none;stroke-width:0.46372044"
         id="path960"
         inkscape:connector-curvature="0" />
      <path
         d="m 1128.0369,5147.733 78.4707,-119.4451 -50.3507,-17.9738 -8.7087,-97.0706 -151.33053,52.5766 14.25943,197.4475 117.6598,-15.5346"
         style="fill:#f68b87;fill-opacity:1;fill-rule:nonzero;stroke:none;stroke-width:0.46372044"
         id="path962"
         inkscape:connector-curvature="0" />
      <path
         d="m 1011.6013,5022.2642 -77.35321,-91.1536 99.19911,-121.5689 44.7397,141.9912 -66.5856,70.7313"
         style="fill:#f35f7e;fill-opacity:1;fill-rule:nonzero;stroke:none;stroke-width:0.46372044"
         id="path964"
         inkscape:connector-curvature="0" />
      <path
         d="m 1037.4676,5078.7036 110.6901,38.4007 -20.1208,30.6287 -109.3453,-11.3797 18.776,-57.6497"
         style="fill:#f35f7e;fill-opacity:1;fill-rule:nonzero;stroke:none;stroke-width:0.46372044"
         id="path966"
         inkscape:connector-curvature="0" />
      <path
         d="m 1027.9103,5036.8667 c 0,0 33.5131,-67.1003 10.1973,62.2359 0,0 31.8019,-3.5706 56.7037,38.4007 0,0 -7.7395,-68.3941 65.3197,0 73.0591,68.3988 -19.8195,121.9121 -133.3058,101.7774 -98.36898,-17.4545 -196.80848,-73.0314 -52.93365,-261.4595 l 54.01875,59.0455"
         style="fill:#202551;fill-opacity:1;fill-rule:nonzero;stroke:none;stroke-width:0.46372044"
         id="path968"
         inkscape:connector-curvature="0" />
      <path
         d="m 1009.9922,5010.1842 c -7.5494,-10.123 -20.51964,-19.3093 -34.00463,-21.2708 -26.96998,-3.9324 -53.3093,17.3617 -57.24165,44.327 -3.92308,26.9746 9.69639,40.979 36.66637,44.9067 15.15439,2.2073 32.71084,-2.2861 45.87591,-11.4353 3.9787,-4.9619 8.704,-56.5276 8.704,-56.5276"
         style="fill:#f68b87;fill-opacity:1;fill-rule:nonzero;stroke:none;stroke-width:0.46372044"
         id="path970"
         inkscape:connector-curvature="0" />
      <path
         d="m 1119.5693,5066.1785 c 2.4995,-9.2188 1.2521,-17.5797 -2.7869,-18.6787 -4.039,-1.0944 -9.3394,5.4905 -11.8435,14.7046 -2.4994,9.2234 -1.252,17.5796 2.787,18.6787 4.0344,1.0943 9.3393,-5.4905 11.8434,-14.7046"
         style="fill:#202551;fill-opacity:1;fill-rule:nonzero;stroke:none;stroke-width:0.46372044"
         id="path972"
         inkscape:connector-curvature="0" />
      <path
         d="m 1086.0702,5087.6024 c 0,0 -3.9324,22.1797 16.6568,11.5002 l -16.6568,-11.5002"
         style="fill:#202551;fill-opacity:1;fill-rule:nonzero;stroke:none;stroke-width:0.46372044"
         id="path974"
         inkscape:connector-curvature="0" />
      <path
         d="m 921.86212,4927.3777 17.95989,20.6263 -6.58947,15.2935 40.65901,14.5237 116.62105,-58.6467 4.2987,-44.7862 -19.736,6.2371 -32.2192,-120.0943 -120.99398,166.8466"
         style="fill:#5248a7;fill-opacity:1;fill-rule:nonzero;stroke:none;stroke-width:0.46372044"
         id="path976"
         inkscape:connector-curvature="0" />
      <path
         d="m 1027.1777,4898.0566 67.6336,-23.6683 -4.2987,44.7862"
         style="fill:none;stroke:#4545a4;stroke-width:4.63720465;stroke-linecap:butt;stroke-linejoin:miter;stroke-miterlimit:10;stroke-dasharray:none;stroke-opacity:1"
         id="path978"
         inkscape:connector-curvature="0" />
      <path
         d="m 1038.1076,5099.1026 c 0,0 13.6055,-79.1849 33.5038,-95.4661 6.5338,-5.3467 18.9012,8.2589 75.8368,9.3996 34.8161,0.6956 34.7837,-120.8223 -11.4122,-117.3352 -46.1958,3.4826 -116.3984,32.2842 -126.9156,120.8549 -9.23268,77.6963 28.9872,82.5468 28.9872,82.5468"
         style="fill:#202551;fill-opacity:1;fill-rule:nonzero;stroke:none;stroke-width:0.46372044"
         id="path980"
         inkscape:connector-curvature="0" />
      <path
         d="m 1094.8113,4988.9134 c 0,0 11.7414,-21.8644 34.8857,-7.0578"
         style="fill:none;stroke:#b9bfbb;stroke-width:4.63720465;stroke-linecap:butt;stroke-linejoin:miter;stroke-miterlimit:10;stroke-dasharray:none;stroke-opacity:1"
         id="path982"
         inkscape:connector-curvature="0" />
      <path
         d="M 1358.812,4535.6313 H 969.4352 v -28.8527 c 0,-11.6811 9.47381,-21.1549 21.15956,-21.1549 H 1358.812 c 11.6858,0 21.1596,9.4738 21.1596,21.1549 v 7.6931 c 0,11.6858 -9.4738,21.1596 -21.1596,21.1596"
         style="fill:#232858;fill-opacity:1;fill-rule:nonzero;stroke:none;stroke-width:0.46372044"
         id="path984"
         inkscape:connector-curvature="0" />
      <path
         d="m 1675.0462,4824.8305 h -452.9436 c -13.4619,0 -24.8276,-10.0024 -26.5295,-23.3576 l -36.4902,-285.712 c -2.045,-15.9891 10.4152,-30.1372 26.5295,-30.1372 h 452.9436 c 13.4618,0 24.8276,10.0071 26.5341,23.3622 l 36.4902,285.7121 c 2.0403,15.9844 -10.4152,30.1325 -26.5341,30.1325"
         style="fill:#232858;fill-opacity:1;fill-rule:nonzero;stroke:none;stroke-width:0.46372044"
         id="path986"
         inkscape:connector-curvature="0" />
      <path
         d="m 1696.9662,4824.8305 h -452.9436 c -13.4571,0 -24.8229,-10.0024 -26.5294,-23.3576 l -36.4902,-285.712 c -2.0404,-15.9891 10.4152,-30.1372 26.5341,-30.1372 h 452.9436 c 13.4572,0 24.823,10.0071 26.5295,23.3622 l 36.4901,285.7121 c 2.0404,15.9844 -10.4151,30.1325 -26.5341,30.1325"
         style="fill:#596abc;fill-opacity:1;fill-rule:nonzero;stroke:none;stroke-width:0.46372044"
         id="path988"
         inkscape:connector-curvature="0" />
      <path
         d="m 1496.9265,4655.2294 c -2.5968,-24.6745 -24.6977,-44.6748 -49.3723,-44.6748 -24.6699,0 -42.5695,20.0003 -39.9773,44.6748 2.5968,24.6699 24.6977,44.6702 49.3676,44.6702 24.6746,0 42.5742,-20.0003 39.982,-44.6702"
         style="fill:#ffffff;fill-opacity:1;fill-rule:nonzero;stroke:none;stroke-width:0.46372044"
         id="path990"
         inkscape:connector-curvature="0" />
      <path
         d="M 1687.089,4488.0443 H 1123.293"
         style="fill:none;stroke:#232858;stroke-width:4.63720465;stroke-linecap:butt;stroke-linejoin:miter;stroke-miterlimit:10;stroke-dasharray:none;stroke-opacity:1"
         id="path992"
         inkscape:connector-curvature="0" />
      <path
         d="m 1936.2553,4870.4003 187.1575,-3.5521 -42.4258,228.9574 -99.5236,-11.2638 c 0,0 -44.8279,-66.1683 -9.4275,-117.6134 39.9403,-58.0439 -39.8938,-60.2095 -35.7806,-96.5281"
         style="fill:#202551;fill-opacity:1;fill-rule:nonzero;stroke:none;stroke-width:0.46372044"
         id="path994"
         inkscape:connector-curvature="0" />
      <path
         d="m 1981.4634,5084.5418 c 0,0 -44.8279,-66.1683 -9.4275,-117.6134 39.9403,-58.0439 -39.8938,-60.2095 -35.7806,-96.5281"
         style="fill:none;stroke:#5e6cbd;stroke-width:9.27440929;stroke-linecap:butt;stroke-linejoin:miter;stroke-miterlimit:10;stroke-dasharray:none;stroke-opacity:1"
         id="path996"
         inkscape:connector-curvature="0" />
      <path
         d="m 2018.8021,4898.0566 c 0,0 -85.1576,-83.567 -130.0596,-398.4703 h 94.7937 l 35.2659,398.4703"
         style="fill:#5e6cbd;fill-opacity:1;fill-rule:nonzero;stroke:none;stroke-width:0.46372044"
         id="path998"
         inkscape:connector-curvature="0" />
      <path
         d="m 2243.8642,4921.3308 -37.0605,-421.7445 h -275.3201 l 34.2736,161.0779 c 0,0 -104.8194,54.6866 53.0449,237.3924 l 39.2354,20.1811 170.4637,12.8729 15.363,-9.7798"
         style="fill:#babbe4;fill-opacity:1;fill-rule:nonzero;stroke:none;stroke-width:0.46372044"
         id="path1000"
         inkscape:connector-curvature="0" />
      <path
         d="m 2018.8021,4709.3039 c 0,0 -16.5038,-28.2731 -0.6399,-50.9629 L 1994.8,4499.5863"
         style="fill:none;stroke:#5e6cbd;stroke-width:4.63720465;stroke-linecap:butt;stroke-linejoin:miter;stroke-miterlimit:10;stroke-dasharray:none;stroke-opacity:1"
         id="path1002"
         inkscape:connector-curvature="0" />
      <path
         d="m 1980.3226,4659.9362 159.4688,-4.7068"
         style="fill:none;stroke:#5e6cbd;stroke-width:4.63720465;stroke-linecap:butt;stroke-linejoin:miter;stroke-miterlimit:10;stroke-dasharray:none;stroke-opacity:1"
         id="path1004"
         inkscape:connector-curvature="0" />
      <path
         d="m 2171.2317,4580.5472 -16.8655,202.8499"
         style="fill:none;stroke:#5e6cbd;stroke-width:4.63720465;stroke-linecap:butt;stroke-linejoin:miter;stroke-miterlimit:10;stroke-dasharray:none;stroke-opacity:1"
         id="path1006"
         inkscape:connector-curvature="0" />
      <path
         d="m 2243.8642,4921.3308 c 0,0 15.2054,-19.1285 32.8082,-63.4834 24.9575,-62.8944 54.7237,-176.5152 52.7714,-358.2611 h -122.6401 l 37.0605,421.7445"
         style="fill:#babbe4;fill-opacity:1;fill-rule:nonzero;stroke:none;stroke-width:0.46372044"
         id="path1008"
         inkscape:connector-curvature="0" />
      <path
         d="m 2329.4438,4485.6747 c 0,0 -61.276,140.1363 -215.4028,100.0337 -168.2841,-43.7891 -230.7751,-35.6044 -230.7751,-35.6044 l -12.7569,-64.4293 h 458.9348"
         style="fill:#f68b87;fill-opacity:1;fill-rule:nonzero;stroke:none;stroke-width:0.46372044"
         id="path1010"
         inkscape:connector-curvature="0" />
      <path
         d="m 2169.0244,4615.1593 -54.6866,-12.2329 124.2168,-117.2517 h 117.0848 c 0,0 -50.4621,122.3573 -186.615,129.4846"
         style="fill:#5e6cbd;fill-opacity:1;fill-rule:nonzero;stroke:none;stroke-width:0.46372044"
         id="path1012"
         inkscape:connector-curvature="0" />
      <path
         d="m 2172.4049,4578.7897 26.0472,7.9575"
         style="fill:none;stroke:#babbe4;stroke-width:4.63720465;stroke-linecap:butt;stroke-linejoin:miter;stroke-miterlimit:10;stroke-dasharray:none;stroke-opacity:1"
         id="path1014"
         inkscape:connector-curvature="0" />
      <path
         d="m 1883.2659,4550.104 -79.9686,16.5316 -57.3204,-80.9609 h 124.5321 l 12.7569,64.4293"
         style="fill:#f68b87;fill-opacity:1;fill-rule:nonzero;stroke:none;stroke-width:0.46372044"
         id="path1016"
         inkscape:connector-curvature="0" />
      <path
         d="m 2018.8021,4709.3039 148.5946,148.5945 -27.6053,13.0352 104.0728,50.3972 -47.791,30.4154 h -111.228 l -66.0431,-82.5515 18.2474,-4.5816 -18.2474,-12.7987 v -142.5105"
         style="fill:#5e6cbd;fill-opacity:1;fill-rule:nonzero;stroke:none;stroke-width:0.46372044"
         id="path1018"
         inkscape:connector-curvature="0" />
      <path
         d="m 2122.6894,4901.2331 48.5423,33.5456 -52.4004,117.1636 -81.2207,-51.0093 22.88,-97.1912 -41.6885,-194.4379 103.8873,191.9292"
         style="fill:#f68b87;fill-opacity:1;fill-rule:nonzero;stroke:none;stroke-width:0.46372044"
         id="path1020"
         inkscape:connector-curvature="0" />
      <path
         d="m 2044.1445,4973.1747 57.0005,29.7198 -50.8887,-55.6742 z"
         style="fill:#f35f7e;fill-opacity:1;fill-rule:nonzero;stroke:none;stroke-width:0.46372044"
         id="path1022"
         inkscape:connector-curvature="0" />
      <path
         d="m 1940.016,5142.8036 -24.8878,-137.9429 h 37.3341 l 41.9203,-57.6404 106.7624,55.6742 -74.6683,166.3737 -86.4607,-26.4646"
         style="fill:#f68b87;fill-opacity:1;fill-rule:nonzero;stroke:none;stroke-width:0.46372044"
         id="path1024"
         inkscape:connector-curvature="0" />
      <path
         d="m 1933.983,5109.3509 -2.4994,-15.1452 98.4617,13.4294 -1.5071,18.8688 -94.4552,-17.153"
         style="fill:#f35f7e;fill-opacity:1;fill-rule:nonzero;stroke:none;stroke-width:0.46372044"
         id="path1026"
         inkscape:connector-curvature="0" />
      <path
         d="m 2212.1597,5153.2837 c -24.6468,66.8129 -54.7793,92.5679 -54.784,92.5725 -60.4042,60.024 -163.6516,-6.5755 -163.6516,-6.5755 -132.304,32.0245 -78.5959,-132.2392 -78.5959,-132.2392 l 107.7454,13.2161 c 15.0663,-90.3838 68.9506,-44.6146 68.9506,-44.6146 l 25.1244,-45.3287 c 0,0 -25.3516,-22.4069 1.0758,-60.8215 21.767,-31.6258 -30.3459,-42.4026 -16.8794,-76.0734 l 208.2707,43.1724 c 0,137.0248 -52.7111,95.9391 -97.256,216.6919"
         style="fill:#202551;fill-opacity:1;fill-rule:nonzero;stroke:none;stroke-width:0.46372044"
         id="path1028"
         inkscape:connector-curvature="0" />
      <path
         d="m 1906.6838,5105.9796 c 0,0 -19.0543,93.7828 15.9474,124.3003 18.252,15.9195 75.7301,9.0008 75.7301,9.0008"
         style="fill:none;stroke:#5e6cbd;stroke-width:9.27440929;stroke-linecap:butt;stroke-linejoin:miter;stroke-miterlimit:10;stroke-dasharray:none;stroke-opacity:1"
         id="path1030"
         inkscape:connector-curvature="0" />
      <path
         d="m 2323.0538,4940.5241 c 0,0 16.6336,62.3704 -73.9913,133.0925"
         style="fill:none;stroke:#202551;stroke-width:9.27440929;stroke-linecap:butt;stroke-linejoin:miter;stroke-miterlimit:10;stroke-dasharray:none;stroke-opacity:1"
         id="path1032"
         inkscape:connector-curvature="0" />
      <path
         d="m 2139.7914,5069.3781 c 0,-24.7812 -20.0883,-44.8695 -44.8696,-44.8695 -24.7765,0 -44.8649,20.0883 -44.8649,44.8695 0,24.7813 20.0884,44.8696 44.8649,44.8696 24.7813,0 44.8696,-20.0883 44.8696,-44.8696"
         style="fill:#f68b87;fill-opacity:1;fill-rule:nonzero;stroke:none;stroke-width:0.46372044"
         id="path1034"
         inkscape:connector-curvature="0" />
      <path
         d="m 1980.3226,5009.9385 27.814,6.8306 c 0,0 9.7613,-79.3287 -27.814,-6.8306"
         style="fill:#ffffff;fill-opacity:1;fill-rule:nonzero;stroke:none;stroke-width:0.46372044"
         id="path1036"
         inkscape:connector-curvature="0" />
      <path
         d="m 1957.1598,5056.816 c 0,0 8.857,53.9585 28.222,0"
         style="fill:none;stroke:#232858;stroke-width:2.31860232;stroke-linecap:butt;stroke-linejoin:miter;stroke-miterlimit:10;stroke-dasharray:none;stroke-opacity:1"
         id="path1038"
         inkscape:connector-curvature="0" />
      <path
         d="m 1963.995,5097.8599 c 0,0 10.7815,18.2613 23.5617,0 h -23.5617"
         style="fill:#202551;fill-opacity:1;fill-rule:nonzero;stroke:none;stroke-width:0.46372044"
         id="path1040"
         inkscape:connector-curvature="0" />
      <path
         d="m 1545.4688,5583.9363 c -16.1329,44.8788 -66.8685,67.3554 -111.3393,48.1759 -38.2755,-16.5085 -58.5586,-59.922 -46.6874,-99.8761 6.6359,-22.3374 21.6233,-39.6157 40.3901,-49.6969 17.3199,-9.2976 32.1914,-22.574 43.0889,-38.9433 l 3.1394,-4.7207 62.3101,22.4024 -0.5797,5.6156 c -2.0543,19.8844 1.4236,39.7826 8.7736,58.3685 7.1738,18.1454 8.027,38.8737 0.9043,58.6746"
         style="fill:#babbe4;fill-opacity:1;fill-rule:nonzero;stroke:none;stroke-width:0.46372044"
         id="path1042"
         inkscape:connector-curvature="0" />
      <path
         d="m 1545.4688,5583.9363 c -16.1329,44.8788 -66.8685,67.3554 -111.3393,48.1759 -38.2755,-16.5085 -58.5586,-59.922 -46.6874,-99.8761 6.6359,-22.3374 21.6233,-39.6157 40.3901,-49.6969 17.3199,-9.2976 32.1914,-22.574 43.0889,-38.9433 l 3.1394,-4.7207 62.3101,22.4024 -0.5797,5.6156 c -2.0543,19.8844 1.4236,39.7826 8.7736,58.3685 7.1738,18.1454 8.027,38.8737 0.9043,58.6746"
         style="fill:#babbe4;fill-opacity:1;fill-rule:nonzero;stroke:none;stroke-width:0.46372044"
         id="path1044"
         inkscape:connector-curvature="0" />
      <path
         d="m 1488.3199,5457.2478 -49.6691,70.0497 c 0,0 0.9042,14.1852 16.4945,11.9361 15.5903,-2.2444 24.8971,-26.8494 13.7679,-22.88 -11.1247,3.9695 -15.057,32.8917 5.9912,37.3017 21.0529,4.41 28.0829,-43.4135 16.4528,-34.1994 -11.6254,9.2188 -9.177,39.662 13.3691,39.9171 l 13.2253,-101.0308"
         style="fill:none;stroke:#ffffff;stroke-width:4.63720465;stroke-linecap:butt;stroke-linejoin:miter;stroke-miterlimit:10;stroke-dasharray:none;stroke-opacity:1"
         id="path1046"
         inkscape:connector-curvature="0" />
      <path
         d="m 1534.9238,5413.3984 -29.2562,-10.5171 c -11.1292,-4.002 -23.39,1.776 -27.3873,12.9007 l -6.186,17.1993 c -4.0019,11.1293 1.776,23.3901 12.9007,27.392 l 29.2607,10.5172 c 11.1247,4.0019 23.3855,-1.7761 27.3874,-12.9007 l 6.186,-17.1994 c 3.9973,-11.1293 -1.776,-23.3901 -12.9053,-27.392"
         style="fill:#202551;fill-opacity:1;fill-rule:nonzero;stroke:none;stroke-width:0.46372044"
         id="path1048"
         inkscape:connector-curvature="0" />
      <path
         d="m 1557.3446,5443.48 -88.1207,-31.6814 -15.4651,43.0147 88.1208,31.6814 15.465,-43.0147"
         style="fill:#596abc;fill-opacity:1;fill-rule:nonzero;stroke:none;stroke-width:0.46372044"
         id="path1050"
         inkscape:connector-curvature="0" />
      <path
         d="m 1465.0921,5660.2044 -8.7921,50.4017"
         style="fill:none;stroke:#babbe4;stroke-width:4.63720465;stroke-linecap:butt;stroke-linejoin:miter;stroke-miterlimit:10;stroke-dasharray:none;stroke-opacity:1"
         id="path1052"
         inkscape:connector-curvature="0" />
      <path
         d="m 1401.5902,5630.1831 -42.0965,41.1181"
         style="fill:none;stroke:#babbe4;stroke-width:4.63720465;stroke-linecap:butt;stroke-linejoin:miter;stroke-miterlimit:10;stroke-dasharray:none;stroke-opacity:1"
         id="path1054"
         inkscape:connector-curvature="0" />
      <path
         d="m 1357.7176,5555.487 -48.0275,-3.4362"
         style="fill:none;stroke:#babbe4;stroke-width:4.63720465;stroke-linecap:butt;stroke-linejoin:miter;stroke-miterlimit:10;stroke-dasharray:none;stroke-opacity:1"
         id="path1056"
         inkscape:connector-curvature="0" />
      <path
         d="m 1534.3256,5632.5852 21.6232,40.0886"
         style="fill:none;stroke:#babbe4;stroke-width:4.63720465;stroke-linecap:butt;stroke-linejoin:miter;stroke-miterlimit:10;stroke-dasharray:none;stroke-opacity:1"
         id="path1058"
         inkscape:connector-curvature="0" />
      <path
         d="m 2210.6201,5262.3137 h 297.843 c 10.3549,0 20.2739,8.398 22.1519,18.7528 l 30.7725,169.8005 c 1.8781,10.3596 -4.9943,18.7529 -15.3491,18.7529 h -297.843 c -10.3549,0 -20.2739,-8.3933 -22.152,-18.7529 l -30.7724,-169.8005 c -1.8828,-10.3548 4.9942,-18.7528 15.3491,-18.7528"
         style="fill:#232756;fill-opacity:1;fill-rule:nonzero;stroke:none;stroke-width:0.46372044"
         id="path1060"
         inkscape:connector-curvature="0" />
      <path
         d="m 2418.0098,5365.9691 c -1.9476,-10.7583 5.1937,-19.4763 15.9473,-19.4763 10.7584,0 21.0576,8.718 23.0052,19.4763 1.9523,10.7537 -5.189,19.4716 -15.9427,19.4716 -10.7583,0 -21.0575,-8.7179 -23.0098,-19.4716"
         style="fill:#ffffff;fill-opacity:1;fill-rule:nonzero;stroke:none;stroke-width:0.46372044"
         id="path1062"
         inkscape:connector-curvature="0" />
      <path
         d="m 2358.853,5365.9691 c -1.9476,-10.7583 5.189,-19.4763 15.9473,-19.4763 10.7537,0 21.0576,8.718 23.0052,19.4763 1.9476,10.7537 -5.189,19.4716 -15.9474,19.4716 -10.7536,0 -21.0575,-8.7179 -23.0051,-19.4716"
         style="fill:#ffffff;fill-opacity:1;fill-rule:nonzero;stroke:none;stroke-width:0.46372044"
         id="path1064"
         inkscape:connector-curvature="0" />
      <path
         d="m 2299.6915,5365.9691 c -1.9476,-10.7583 5.1891,-19.4763 15.9474,-19.4763 10.7583,0 21.0575,8.718 23.0051,19.4763 1.9523,10.7537 -5.189,19.4716 -15.9427,19.4716 -10.7583,0 -21.0575,-8.7179 -23.0098,-19.4716"
         style="fill:#ffffff;fill-opacity:1;fill-rule:nonzero;stroke:none;stroke-width:0.46372044"
         id="path1066"
         inkscape:connector-curvature="0" />
      <path
         d="m 2370.9143,5273.4801 -103.4884,-61.5033 18.5488,66.3538 z"
         style="fill:#232756;fill-opacity:1;fill-rule:nonzero;stroke:none;stroke-width:0.46372044"
         id="path1068"
         inkscape:connector-curvature="0" />
      <path
         d="M 1251.1315,5287.4844 H 953.29309 c -10.35488,0 -20.27386,8.3934 -22.15192,18.7529 l -30.77713,169.8005 c -1.87807,10.3549 4.99891,18.7528 15.35378,18.7528 h 297.84298 c 10.3549,0 20.2739,-8.3979 22.1473,-18.7528 l 30.7771,-169.8005 c 1.8781,-10.3595 -4.9942,-18.7529 -15.3537,-18.7529"
         style="fill:#babbe4;fill-opacity:1;fill-rule:nonzero;stroke:none;stroke-width:0.46372044"
         id="path1070"
         inkscape:connector-curvature="0" />
      <path
         d="m 1043.7418,5391.1352 c 1.9476,-10.7537 -5.1891,-19.4716 -15.9428,-19.4716 -10.7583,0 -21.0575,8.7179 -23.0098,19.4716 -1.9476,10.7583 5.1891,19.4809 15.9474,19.4809 10.7537,0 21.0575,-8.7226 23.0052,-19.4809"
         style="fill:#ffffff;fill-opacity:1;fill-rule:nonzero;stroke:none;stroke-width:0.46372044"
         id="path1072"
         inkscape:connector-curvature="0" />
      <path
         d="m 1102.9032,5391.1352 c 1.9476,-10.7537 -5.189,-19.4716 -15.9473,-19.4716 -10.7537,0 -21.0576,8.7179 -23.0052,19.4716 -1.9523,10.7583 5.189,19.4809 15.9427,19.4809 10.7583,0 21.0576,-8.7226 23.0098,-19.4809"
         style="fill:#ffffff;fill-opacity:1;fill-rule:nonzero;stroke:none;stroke-width:0.46372044"
         id="path1074"
         inkscape:connector-curvature="0" />
      <path
         d="m 1162.06,5391.1352 c 1.9523,-10.7537 -5.189,-19.4716 -15.9427,-19.4716 -10.7583,0 -21.0575,8.7179 -23.0098,19.4716 -1.9476,10.7583 5.189,19.4809 15.9474,19.4809 10.7583,0 21.0575,-8.7226 23.0051,-19.4809"
         style="fill:#ffffff;fill-opacity:1;fill-rule:nonzero;stroke:none;stroke-width:0.46372044"
         id="path1076"
         inkscape:connector-curvature="0" />
      <path
         d="m 1144.8838,5298.6508 16.3323,-59.3701 66.0755,63.525 z"
         style="fill:#babbe4;fill-opacity:1;fill-rule:nonzero;stroke:none;stroke-width:0.46372044"
         id="path1078"
         inkscape:connector-curvature="0" />
    </g>
  </g>
</svg>
