<?xml version="1.0" encoding="UTF-8" standalone="no"?>
<!-- Created with Inkscape (http://www.inkscape.org/) -->

<svg
   xmlns:dc="http://purl.org/dc/elements/1.1/"
   xmlns:cc="http://creativecommons.org/ns#"
   xmlns:rdf="http://www.w3.org/1999/02/22-rdf-syntax-ns#"
   xmlns:svg="http://www.w3.org/2000/svg"
   xmlns="http://www.w3.org/2000/svg"
   xmlns:sodipodi="http://sodipodi.sourceforge.net/DTD/sodipodi-0.dtd"
   xmlns:inkscape="http://www.inkscape.org/namespaces/inkscape"
   version="1.1"
   id="svg3767"
   width="19.817881"
   height="19.431755"
   viewBox="0 0 19.817881 19.431754"
   sodipodi:docname="icon-menu.svg"
   inkscape:version="0.92.5 (2060ec1f9f, 2020-04-08)">
  <metadata
     id="metadata3773">
    <rdf:RDF>
      <cc:Work
         rdf:about="">
        <dc:format>image/svg+xml</dc:format>
        <dc:type
           rdf:resource="http://purl.org/dc/dcmitype/StillImage" />
        <dc:title></dc:title>
      </cc:Work>
    </rdf:RDF>
  </metadata>
  <defs
     id="defs3771" />
  <sodipodi:namedview
     pagecolor="#ffffff"
     bordercolor="#666666"
     borderopacity="1"
     objecttolerance="10"
     gridtolerance="10"
     guidetolerance="10"
     inkscape:pageopacity="0"
     inkscape:pageshadow="2"
     inkscape:window-width="1466"
     inkscape:window-height="904"
     id="namedview3769"
     showgrid="false"
     inkscape:zoom="9.1733333"
     inkscape:cx="-0.23411806"
     inkscape:cy="0.34863548"
     inkscape:window-x="0"
     inkscape:window-y="0"
     inkscape:window-maximized="1"
     inkscape:current-layer="svg3767" />
  <path
     style="fill:#000000"
     d=""
     id="path3777"
     inkscape:connector-curvature="0" />
  <path
     style="fill:#ffffff;stroke:#ffffff;stroke-width:0.02904272"
     d="m 1.1255815,19.369844 c -0.5265922,-0.120788 -0.95583104,-0.580386 -1.069153,-1.144807 -0.0558761846,-0.278282 -0.0558761846,-1.817828 0,-2.096117 0.11569953,-0.57623 0.5407116,-1.024917 1.0865453,-1.147059 0.2803985,-0.06271 17.2515482,-0.06271 17.5319462,0 0.545834,0.122138 0.970844,0.570829 1.086545,1.147059 0.05586,0.278289 0.05586,1.817835 0,2.096117 -0.114748,0.571544 -0.543552,1.025607 -1.082362,1.146144 -0.278329,0.06228 -17.2818705,0.06098 -17.5535215,-0.0014 z m 0,-7.460145 C 0.5989893,11.788929 0.16975046,11.329319 0.0564285,10.7649 5.523154e-4,10.486618 5.523154e-4,8.9470657 0.0564285,8.6687804 0.17212803,8.0925458 0.5971401,7.6438605 1.1429738,7.5217192 c 0.2803985,-0.062749 17.2515482,-0.062749 17.5319462,0 0.545834,0.1221443 0.970844,0.5708266 1.086545,1.1470612 0.05586,0.2782853 0.05586,1.8178376 0,2.0961196 -0.114748,0.571536 -0.543552,1.025607 -1.082362,1.146137 -0.278329,0.06227 -17.2818705,0.06097 -17.5535215,-0.0015 z m 0,-7.4601383 C 0.5989893,4.328783 0.16975046,3.8691751 0.0564285,3.3047615 5.523154e-4,3.026475 5.523154e-4,1.4869269 0.0564285,1.2086416 0.17212803,0.63240715 0.5971401,0.18372172 1.1429738,0.06158061 c 0.2803985,-0.06274567 17.2515482,-0.06274567 17.5319462,0 0.545834,0.12214129 0.970844,0.57082654 1.086545,1.14706099 0.05586,0.2782853 0.05586,1.8178334 0,2.0961199 -0.114748,0.5715358 -0.543552,1.0256013 -1.082362,1.1461371 -0.278329,0.062268 -17.2818705,0.060966 -17.5535215,-0.00131 z"
     id="path3908"
     inkscape:connector-curvature="0" />
</svg>
